<svg width="12" height="13" viewBox="0 0 12 13" fill="none" xmlns="http://www.w3.org/2000/svg">
<path d="M8.91667 0.666504H3.08333C1.8 0.666504 0.75 1.7165 0.75 2.99984V9.99984C0.75 11.2832 1.8 12.3332 3.08333 12.3332H8.91667C10.2 12.3332 11.25 11.2832 11.25 9.99984V2.99984C11.25 1.7165 10.2 0.666504 8.91667 0.666504ZM5.335 10.0815C5.2475 10.169 5.13667 10.2098 5.02583 10.2098C4.915 10.2098 4.80417 10.169 4.71667 10.0815L4.3375 9.70234L3.97583 10.064C3.88833 10.1515 3.7775 10.1923 3.66667 10.1923C3.55583 10.1923 3.445 10.1515 3.3575 10.064C3.18833 9.89484 3.18833 9.61484 3.3575 9.44567L3.71917 9.084L3.375 8.73984C3.20583 8.57067 3.20583 8.29067 3.375 8.1215C3.54417 7.95234 3.82417 7.95234 3.99333 8.1215L4.3375 8.46567L4.69917 8.104C4.86833 7.93484 5.14833 7.93484 5.3175 8.104C5.48667 8.27317 5.48667 8.55317 5.3175 8.72234L4.95583 9.084L5.335 9.46317C5.50417 9.63234 5.50417 9.91234 5.335 10.0815ZM7.4525 10.2857C7.13167 10.2857 6.86917 10.029 6.86917 9.70817V9.6965C6.86917 9.37567 7.13167 9.11317 7.4525 9.11317C7.77333 9.11317 8.03583 9.37567 8.03583 9.6965C8.03583 10.0173 7.77333 10.2857 7.4525 10.2857ZM8.63083 9.02567C8.31 9.02567 8.04167 8.76317 8.04167 8.44234C8.04167 8.1215 8.29833 7.859 8.61917 7.859H8.63083C8.95167 7.859 9.21417 8.1215 9.21417 8.44234C9.21417 8.76317 8.95167 9.02567 8.63083 9.02567ZM9.5 4.89567C9.5 5.45567 9.03917 5.9165 8.47917 5.9165H3.52083C2.96083 5.9165 2.5 5.45567 2.5 4.89567V3.43734C2.5 2.87734 2.96083 2.4165 3.52083 2.4165H8.47917C9.03917 2.4165 9.5 2.87734 9.5 3.43734V4.89567Z" fill="black"/>
</svg>
