<svg width="14" height="15" viewBox="0 0 14 15" fill="none" xmlns="http://www.w3.org/2000/svg">
<path d="M11.2234 3.75507H10.99L9.01835 1.78341C8.86085 1.62591 8.60419 1.62591 8.44085 1.78341C8.28335 1.94091 8.28335 2.19757 8.44085 2.36091L9.83502 3.75507H4.16502L5.55919 2.36091C5.71669 2.20341 5.71669 1.94674 5.55919 1.78341C5.40169 1.62591 5.14502 1.62591 4.98169 1.78341L3.01585 3.75507H2.78252C2.25752 3.75507 1.16669 3.75507 1.16669 5.24841C1.16669 5.81424 1.28335 6.18757 1.52835 6.43257C1.66835 6.57841 1.83752 6.65424 2.01835 6.69507C2.18752 6.73591 2.36835 6.74174 2.54335 6.74174H11.4567C11.6375 6.74174 11.8067 6.73007 11.97 6.69507C12.46 6.57841 12.8334 6.22841 12.8334 5.24841C12.8334 3.75507 11.7425 3.75507 11.2234 3.75507Z" fill="black"/>
<path d="M11.1126 7.5H2.8409C2.47924 7.5 2.20507 7.82083 2.2634 8.17667L2.7534 11.175C2.91674 12.1783 3.35424 13.3333 5.29674 13.3333H8.56924C10.5351 13.3333 10.8851 12.3475 11.0951 11.245L11.6842 8.19417C11.7542 7.8325 11.4801 7.5 11.1126 7.5ZM6.18924 11.2625C6.18924 11.49 6.0084 11.6708 5.78674 11.6708C5.55924 11.6708 5.3784 11.49 5.3784 11.2625V9.3375C5.3784 9.11583 5.55924 8.92917 5.78674 8.92917C6.0084 8.92917 6.18924 9.11583 6.18924 9.3375V11.2625ZM8.6859 11.2625C8.6859 11.49 8.50507 11.6708 8.27757 11.6708C8.0559 11.6708 7.86924 11.49 7.86924 11.2625V9.3375C7.86924 9.11583 8.0559 8.92917 8.27757 8.92917C8.50507 8.92917 8.6859 9.11583 8.6859 9.3375V11.2625Z" fill="black"/>
</svg>
