<svg width="14" height="13" viewBox="0 0 14 13" fill="none" xmlns="http://www.w3.org/2000/svg">
<path d="M12.8334 11.8958H12.25V5.32167C12.25 4.96 12.0867 4.62167 11.8009 4.4L11.0834 3.84L11.0717 2.41084C11.0717 2.09 10.8092 1.83334 10.4884 1.83334H8.49919L7.71752 1.22667C7.29752 0.89417 6.70252 0.89417 6.28252 1.22667L2.19919 4.4C1.91335 4.62167 1.75002 4.96 1.75002 5.31584L1.72085 11.8958H1.16669C0.92752 11.8958 0.729187 12.0942 0.729187 12.3333C0.729187 12.5725 0.92752 12.7708 1.16669 12.7708H12.8334C13.0725 12.7708 13.2709 12.5725 13.2709 12.3333C13.2709 12.0942 13.0725 11.8958 12.8334 11.8958ZM3.79169 6.9375V6.0625C3.79169 5.74167 4.05419 5.47917 4.37502 5.47917H5.54169C5.86252 5.47917 6.12502 5.74167 6.12502 6.0625V6.9375C6.12502 7.25834 5.86252 7.52084 5.54169 7.52084H4.37502C4.05419 7.52084 3.79169 7.25834 3.79169 6.9375ZM8.45835 11.8958H5.54169V10.2917C5.54169 9.8075 5.93252 9.41667 6.41669 9.41667H7.58335C8.06752 9.41667 8.45835 9.8075 8.45835 10.2917V11.8958ZM10.2084 6.9375C10.2084 7.25834 9.94585 7.52084 9.62502 7.52084H8.45835C8.13752 7.52084 7.87502 7.25834 7.87502 6.9375V6.0625C7.87502 5.74167 8.13752 5.47917 8.45835 5.47917H9.62502C9.94585 5.47917 10.2084 5.74167 10.2084 6.0625V6.9375Z" fill="black"/>
</svg>
