<svg width="14" height="15" viewBox="0 0 14 15" fill="none" xmlns="http://www.w3.org/2000/svg">
<path d="M12.6875 5.16671C12.6875 5.40588 12.4892 5.60421 12.25 5.60421H1.75C1.51083 5.60421 1.3125 5.40588 1.3125 5.16671C1.3125 4.92755 1.51083 4.72921 1.75 4.72921H2.345L2.56667 3.67338C2.77667 2.65255 3.21417 1.71338 4.9525 1.71338H9.0475C10.7858 1.71338 11.2233 2.65255 11.4333 3.67338L11.655 4.72921H12.25C12.4892 4.72921 12.6875 4.92755 12.6875 5.16671Z" fill="black"/>
<path d="M12.9383 8.46817C12.8508 7.50567 12.5941 6.479 10.7216 6.479H3.27828C1.40578 6.479 1.15495 7.50567 1.06162 8.46817L0.734948 12.0207C0.694115 12.464 0.839948 12.9073 1.14328 13.2398C1.45245 13.5782 1.88995 13.7707 2.35661 13.7707H3.45328C4.39828 13.7707 4.57911 13.2282 4.69578 12.8723L4.81245 12.5223C4.94661 12.1198 4.98161 12.0207 5.50661 12.0207H8.49328C9.01828 12.0207 9.03578 12.079 9.18745 12.5223L9.30411 12.8723C9.42078 13.2282 9.60161 13.7707 10.5466 13.7707H11.6433C12.1041 13.7707 12.5474 13.5782 12.8566 13.2398C13.1599 12.9073 13.3058 12.464 13.2649 12.0207L12.9383 8.46817ZM5.24995 9.68734H3.49995C3.26078 9.68734 3.06245 9.489 3.06245 9.24984C3.06245 9.01067 3.26078 8.81234 3.49995 8.81234H5.24995C5.48911 8.81234 5.68745 9.01067 5.68745 9.24984C5.68745 9.489 5.48911 9.68734 5.24995 9.68734ZM10.4999 9.68734H8.74995C8.51078 9.68734 8.31245 9.489 8.31245 9.24984C8.31245 9.01067 8.51078 8.81234 8.74995 8.81234H10.4999C10.7391 8.81234 10.9374 9.01067 10.9374 9.24984C10.9374 9.489 10.7391 9.68734 10.4999 9.68734Z" fill="black"/>
</svg>
