<svg width="14" height="15" viewBox="0 0 14 15" fill="none" xmlns="http://www.w3.org/2000/svg">
<path d="M9.81755 9.62342C10.2084 9.36676 10.7217 9.64676 10.7217 10.1134V10.8659C10.7217 11.6068 10.1442 12.4001 9.45005 12.6334L7.58922 13.2518C7.26255 13.3626 6.73171 13.3626 6.41088 13.2518L4.55005 12.6334C3.85005 12.4001 3.27838 11.6068 3.27838 10.8659V10.1076C3.27838 9.64676 3.79171 9.36676 4.17671 9.61759L5.37838 10.3993C5.83922 10.7084 6.42255 10.8601 7.00588 10.8601C7.58922 10.8601 8.17255 10.7084 8.63338 10.3993L9.81755 9.62342Z" fill="black"/>
<path d="M11.655 4.26841L8.16084 1.97591C7.53084 1.56174 6.49251 1.56174 5.86251 1.97591L2.35084 4.26841C1.22501 4.99757 1.22501 6.64841 2.35084 7.38341L3.28418 7.99007L5.86251 9.67007C6.49251 10.0842 7.53084 10.0842 8.16084 9.67007L10.7217 7.99007L11.5208 7.46507V9.25007C11.5208 9.48924 11.7192 9.68757 11.9583 9.68757C12.1975 9.68757 12.3958 9.48924 12.3958 9.25007V6.38007C12.6292 5.62757 12.39 4.75257 11.655 4.26841Z" fill="black"/>
</svg>
