<svg width="14" height="15" viewBox="0 0 14 15" fill="none" xmlns="http://www.w3.org/2000/svg">
<path d="M11.2234 3.75507H10.9901L9.01842 1.78341C8.86092 1.62591 8.60425 1.62591 8.44092 1.78341C8.28342 1.94091 8.28342 2.19757 8.44092 2.36091L9.83508 3.75507H4.16508L5.55925 2.36091C5.71675 2.20341 5.71675 1.94674 5.55925 1.78341C5.40175 1.62591 5.14508 1.62591 4.98175 1.78341L3.01591 3.75507H2.78258C2.25758 3.75507 1.16675 3.75507 1.16675 5.24841C1.16675 5.81424 1.28341 6.18757 1.52841 6.43257C1.66841 6.57841 1.83758 6.65424 2.01841 6.69507C2.18758 6.73591 2.36841 6.74174 2.54341 6.74174H11.4567C11.6376 6.74174 11.8067 6.73007 11.9701 6.69507C12.4601 6.57841 12.8334 6.22841 12.8334 5.24841C12.8334 3.75507 11.7426 3.75507 11.2234 3.75507Z" fill="#1FA46C"/>
<path d="M11.1126 7.5H2.84096C2.4793 7.5 2.20513 7.82083 2.26346 8.17667L2.75346 11.175C2.9168 12.1783 3.3543 13.3333 5.2968 13.3333H8.5693C10.5351 13.3333 10.8851 12.3475 11.0951 11.245L11.6843 8.19417C11.7543 7.8325 11.4801 7.5 11.1126 7.5ZM6.1893 11.2625C6.1893 11.49 6.00846 11.6708 5.7868 11.6708C5.5593 11.6708 5.37846 11.49 5.37846 11.2625V9.3375C5.37846 9.11583 5.5593 8.92917 5.7868 8.92917C6.00846 8.92917 6.1893 9.11583 6.1893 9.3375V11.2625ZM8.68596 11.2625C8.68596 11.49 8.50513 11.6708 8.27763 11.6708C8.05596 11.6708 7.8693 11.49 7.8693 11.2625V9.3375C7.8693 9.11583 8.05596 8.92917 8.27763 8.92917C8.50513 8.92917 8.68596 9.11583 8.68596 9.3375V11.2625Z" fill="#1FA46C"/>
</svg>
