<svg width="12" height="13" viewBox="0 0 12 13" fill="none" xmlns="http://www.w3.org/2000/svg">
<path d="M10.5 11.5H1.5C1.295 11.5 1.125 11.33 1.125 11.125C1.125 10.92 1.295 10.75 1.5 10.75H10.5C10.705 10.75 10.875 10.92 10.875 11.125C10.875 11.33 10.705 11.5 10.5 11.5Z" fill="#999999"/>
<path d="M9.50998 2.24008C8.53998 1.27008 7.58998 1.24508 6.59498 2.24008L5.98998 2.84508C5.93998 2.89508 5.91998 2.97508 5.93998 3.04508C6.31998 4.37008 7.37998 5.43008 8.70498 5.81008C8.72498 5.81508 8.74498 5.82008 8.76498 5.82008C8.81998 5.82008 8.86998 5.80008 8.90998 5.76008L9.50998 5.15508C10.005 4.66508 10.245 4.19008 10.245 3.71008C10.25 3.21508 10.01 2.73508 9.50998 2.24008Z" fill="#999999"/>
<path d="M7.80498 6.2649C7.65998 6.1949 7.51998 6.1249 7.38498 6.0449C7.27498 5.9799 7.16998 5.9099 7.06498 5.8349C6.97998 5.7799 6.87998 5.6999 6.78498 5.6199C6.77498 5.6149 6.73998 5.5849 6.69998 5.5449C6.53498 5.4049 6.34998 5.2249 6.18498 5.0249C6.16998 5.0149 6.14498 4.9799 6.10998 4.9349C6.05998 4.8749 5.97498 4.7749 5.89998 4.6599C5.83998 4.5849 5.76998 4.4749 5.70498 4.3649C5.62498 4.2299 5.55498 4.0949 5.48498 3.9549C5.3932 3.75823 5.13507 3.69981 4.98161 3.85327L2.16998 6.6649C2.10498 6.7299 2.04498 6.8549 2.02998 6.9399L1.75998 8.8549C1.70998 9.1949 1.80498 9.5149 2.01498 9.7299C2.19498 9.9049 2.44498 9.9999 2.71498 9.9999C2.77498 9.9999 2.83498 9.9949 2.89498 9.9849L4.81498 9.7149C4.90498 9.6999 5.02998 9.6399 5.08998 9.5749L7.90624 6.75863C8.05664 6.60824 8.00013 6.34947 7.80498 6.2649Z" fill="#999999"/>
</svg>
