<svg viewBox="0 0 111 18" xmlns="http://www.w3.org/2000/svg" xmlns:xlink="http://www.w3.org/1999/xlink" width="111.000000" height="18.000000" fill="none" customFrame="#000000">
	<path id="Анализ расходов" d="M6.91978 11.358L2.71978 11.358L1.89178 13.302L0.283781 13.302L4.06378 4.902L5.59978 4.902L9.39178 13.302L7.75978 13.302L6.91978 11.358ZM6.40378 10.134L4.81978 6.462L3.24778 10.134L6.40378 10.134ZM10.5119 6.894L12.0119 6.894L12.0119 9.498L15.2399 9.498L15.2399 6.894L16.7399 6.894L16.7399 13.302L15.2399 13.302L15.2399 10.77L12.0119 10.77L12.0119 13.302L10.5119 13.302L10.5119 6.894ZM21.1382 6.822C22.0822 6.822 22.8022 7.05 23.2982 7.506C23.8022 7.954 24.0542 8.634 24.0542 9.546L24.0542 13.302L22.6382 13.302L22.6382 12.522C22.4542 12.802 22.1902 13.018 21.8462 13.17C21.5102 13.314 21.1022 13.386 20.6222 13.386C20.1422 13.386 19.7222 13.306 19.3622 13.146C19.0022 12.978 18.7222 12.75 18.5222 12.462C18.3302 12.166 18.2342 11.834 18.2342 11.466C18.2342 10.89 18.4462 10.43 18.8702 10.086C19.3022 9.734 19.9782 9.558 20.8982 9.558L22.5542 9.558L22.5542 9.462C22.5542 9.014 22.4182 8.67 22.1462 8.43C21.8822 8.19 21.4862 8.07 20.9582 8.07C20.5982 8.07 20.2422 8.126 19.8902 8.238C19.5462 8.35 19.2542 8.506 19.0142 8.706L18.4262 7.614C18.7622 7.358 19.1662 7.162 19.6382 7.026C20.1102 6.89 20.6102 6.822 21.1382 6.822ZM20.9342 12.294C21.3102 12.294 21.6422 12.21 21.9302 12.042C22.2262 11.866 22.4342 11.618 22.5542 11.298L22.5542 10.554L21.0062 10.554C20.1422 10.554 19.7102 10.838 19.7102 11.406C19.7102 11.678 19.8182 11.894 20.0342 12.054C20.2502 12.214 20.5502 12.294 20.9342 12.294ZM31.7183 6.894L31.7183 13.302L30.2183 13.302L30.2183 8.166L27.8183 8.166L27.7583 9.438C27.7183 10.286 27.6383 10.998 27.5183 11.574C27.4063 12.142 27.2103 12.594 26.9303 12.93C26.6583 13.258 26.2823 13.422 25.8023 13.422C25.5783 13.422 25.3023 13.378 24.9743 13.29L25.0463 12.03C25.1583 12.054 25.2543 12.066 25.3343 12.066C25.6383 12.066 25.8663 11.946 26.0183 11.706C26.1703 11.458 26.2663 11.166 26.3063 10.83C26.3543 10.486 26.3943 9.998 26.4263 9.366L26.5343 6.894L31.7183 6.894ZM33.7385 6.894L35.2385 6.894L35.2385 11.118L38.7785 6.894L40.1465 6.894L40.1465 13.302L38.6465 13.302L38.6465 9.078L35.1185 13.302L33.7385 13.302L33.7385 6.894ZM45.9102 9.966C46.3102 10.078 46.6182 10.262 46.8342 10.518C47.0582 10.766 47.1702 11.066 47.1702 11.418C47.1702 11.81 47.0382 12.158 46.7742 12.462C46.5102 12.758 46.1462 12.99 45.6822 13.158C45.2182 13.326 44.6902 13.41 44.0982 13.41C43.6022 13.41 43.1182 13.354 42.6462 13.242C42.1742 13.122 41.7462 12.954 41.3622 12.738L41.7942 11.622C42.1062 11.798 42.4582 11.934 42.8502 12.03C43.2422 12.126 43.6342 12.174 44.0262 12.174C44.5302 12.174 44.9222 12.098 45.2022 11.946C45.4902 11.786 45.6342 11.57 45.6342 11.298C45.6342 11.05 45.5222 10.858 45.2982 10.722C45.0822 10.586 44.7742 10.518 44.3742 10.518L43.1262 10.518L43.1262 9.51L44.2542 9.51C44.6302 9.51 44.9222 9.446 45.1302 9.318C45.3462 9.19 45.4542 9.01 45.4542 8.778C45.4542 8.546 45.3262 8.362 45.0702 8.226C44.8142 8.09 44.4622 8.022 44.0142 8.022C43.3742 8.022 42.6982 8.178 41.9862 8.49L41.6022 7.386C42.4422 6.994 43.2902 6.798 44.1462 6.798C44.6902 6.798 45.1782 6.874 45.6102 7.026C46.0422 7.17 46.3782 7.378 46.6182 7.65C46.8662 7.914 46.9902 8.218 46.9902 8.562C46.9902 8.874 46.8942 9.154 46.7022 9.402C46.5102 9.642 46.2462 9.83 45.9102 9.966ZM55.5952 6.822C56.2192 6.822 56.7752 6.958 57.2632 7.23C57.7592 7.502 58.1472 7.886 58.4272 8.382C58.7072 8.878 58.8472 9.45 58.8472 10.098C58.8472 10.746 58.7072 11.322 58.4272 11.826C58.1472 12.322 57.7592 12.706 57.2632 12.978C56.7752 13.25 56.2192 13.386 55.5952 13.386C54.7312 13.386 54.0472 13.098 53.5432 12.522L53.5432 15.63L52.0432 15.63L52.0432 6.894L53.4712 6.894L53.4712 7.734C53.7192 7.43 54.0232 7.202 54.3832 7.05C54.7512 6.898 55.1552 6.822 55.5952 6.822ZM55.4272 12.102C55.9792 12.102 56.4312 11.918 56.7832 11.55C57.1432 11.182 57.3232 10.698 57.3232 10.098C57.3232 9.498 57.1432 9.014 56.7832 8.646C56.4312 8.278 55.9792 8.094 55.4272 8.094C55.0672 8.094 54.7432 8.178 54.4552 8.346C54.1672 8.506 53.9392 8.738 53.7712 9.042C53.6032 9.346 53.5192 9.698 53.5192 10.098C53.5192 10.498 53.6032 10.85 53.7712 11.154C53.9392 11.458 54.1672 11.694 54.4552 11.862C54.7432 12.022 55.0672 12.102 55.4272 12.102ZM62.646 6.822C63.59 6.822 64.31 7.05 64.806 7.506C65.31 7.954 65.562 8.634 65.562 9.546L65.562 13.302L64.146 13.302L64.146 12.522C63.962 12.802 63.698 13.018 63.354 13.17C63.018 13.314 62.61 13.386 62.13 13.386C61.65 13.386 61.23 13.306 60.87 13.146C60.51 12.978 60.23 12.75 60.03 12.462C59.838 12.166 59.742 11.834 59.742 11.466C59.742 10.89 59.954 10.43 60.378 10.086C60.81 9.734 61.486 9.558 62.406 9.558L64.062 9.558L64.062 9.462C64.062 9.014 63.926 8.67 63.654 8.43C63.39 8.19 62.994 8.07 62.466 8.07C62.106 8.07 61.75 8.126 61.398 8.238C61.054 8.35 60.762 8.506 60.522 8.706L59.934 7.614C60.27 7.358 60.674 7.162 61.146 7.026C61.618 6.89 62.118 6.822 62.646 6.822ZM62.442 12.294C62.818 12.294 63.15 12.21 63.438 12.042C63.734 11.866 63.942 11.618 64.062 11.298L64.062 10.554L62.514 10.554C61.65 10.554 61.218 10.838 61.218 11.406C61.218 11.678 61.326 11.894 61.542 12.054C61.758 12.214 62.058 12.294 62.442 12.294ZM70.3342 13.386C69.6702 13.386 69.0742 13.246 68.5462 12.966C68.0182 12.686 67.6062 12.298 67.3102 11.802C67.0142 11.298 66.8662 10.73 66.8662 10.098C66.8662 9.466 67.0142 8.902 67.3102 8.406C67.6062 7.91 68.0142 7.522 68.5342 7.242C69.0622 6.962 69.6622 6.822 70.3342 6.822C70.9662 6.822 71.5182 6.95 71.9902 7.206C72.4702 7.462 72.8302 7.83 73.0702 8.31L71.9182 8.982C71.7342 8.686 71.5022 8.466 71.2222 8.322C70.9502 8.17 70.6502 8.094 70.3222 8.094C69.7622 8.094 69.2982 8.278 68.9302 8.646C68.5622 9.006 68.3782 9.49 68.3782 10.098C68.3782 10.706 68.5582 11.194 68.9182 11.562C69.2862 11.922 69.7542 12.102 70.3222 12.102C70.6502 12.102 70.9502 12.03 71.2222 11.886C71.5022 11.734 71.7342 11.51 71.9182 11.214L73.0702 11.886C72.8222 12.366 72.4582 12.738 71.9782 13.002C71.5062 13.258 70.9582 13.386 70.3342 13.386ZM78.223 13.302L76.579 11.082L74.923 13.302L73.267 13.302L75.763 10.05L73.375 6.894L75.043 6.894L76.615 8.994L78.187 6.894L79.807 6.894L77.407 10.026L79.915 13.302L78.223 13.302ZM83.6335 13.386C82.9855 13.386 82.4015 13.246 81.8815 12.966C81.3615 12.686 80.9535 12.298 80.6575 11.802C80.3695 11.298 80.2255 10.73 80.2255 10.098C80.2255 9.466 80.3695 8.902 80.6575 8.406C80.9535 7.91 81.3615 7.522 81.8815 7.242C82.4015 6.962 82.9855 6.822 83.6335 6.822C84.2895 6.822 84.8775 6.962 85.3975 7.242C85.9175 7.522 86.3215 7.91 86.6095 8.406C86.9055 8.902 87.0535 9.466 87.0535 10.098C87.0535 10.73 86.9055 11.298 86.6095 11.802C86.3215 12.298 85.9175 12.686 85.3975 12.966C84.8775 13.246 84.2895 13.386 83.6335 13.386ZM83.6335 12.102C84.1855 12.102 84.6415 11.918 85.0015 11.55C85.3615 11.182 85.5415 10.698 85.5415 10.098C85.5415 9.498 85.3615 9.014 85.0015 8.646C84.6415 8.278 84.1855 8.094 83.6335 8.094C83.0815 8.094 82.6255 8.278 82.2655 8.646C81.9135 9.014 81.7375 9.498 81.7375 10.098C81.7375 10.698 81.9135 11.182 82.2655 11.55C82.6255 11.918 83.0815 12.102 83.6335 12.102ZM95.305 12.03L95.305 14.73L93.901 14.73L93.901 13.302L88.957 13.302L88.957 14.73L87.565 14.73L87.565 12.03L87.865 12.03C88.273 12.014 88.549 11.754 88.693 11.25C88.845 10.738 88.945 10.018 88.993 9.09L89.077 6.894L94.357 6.894L94.357 12.03L95.305 12.03ZM90.361 9.198C90.329 9.934 90.269 10.534 90.181 10.998C90.093 11.462 89.933 11.806 89.701 12.03L92.857 12.03L92.857 8.166L90.397 8.166L90.361 9.198ZM99.5007 13.386C98.8527 13.386 98.2687 13.246 97.7487 12.966C97.2287 12.686 96.8207 12.298 96.5247 11.802C96.2367 11.298 96.0927 10.73 96.0927 10.098C96.0927 9.466 96.2367 8.902 96.5247 8.406C96.8207 7.91 97.2287 7.522 97.7487 7.242C98.2687 6.962 98.8527 6.822 99.5007 6.822C100.157 6.822 100.745 6.962 101.265 7.242C101.785 7.522 102.189 7.91 102.477 8.406C102.773 8.902 102.921 9.466 102.921 10.098C102.921 10.73 102.773 11.298 102.477 11.802C102.189 12.298 101.785 12.686 101.265 12.966C100.745 13.246 100.157 13.386 99.5007 13.386ZM99.5007 12.102C100.053 12.102 100.509 11.918 100.869 11.55C101.229 11.182 101.409 10.698 101.409 10.098C101.409 9.498 101.229 9.014 100.869 8.646C100.509 8.278 100.053 8.094 99.5007 8.094C98.9487 8.094 98.4927 8.278 98.1327 8.646C97.7807 9.014 97.6047 9.498 97.6047 10.098C97.6047 10.698 97.7807 11.182 98.1327 11.55C98.4927 11.918 98.9487 12.102 99.5007 12.102ZM109.047 9.966C109.839 10.206 110.235 10.718 110.235 11.502C110.235 12.078 110.019 12.522 109.587 12.834C109.155 13.146 108.515 13.302 107.667 13.302L104.403 13.302L104.403 6.894L107.535 6.894C108.319 6.894 108.931 7.038 109.371 7.326C109.811 7.614 110.031 8.022 110.031 8.55C110.031 8.878 109.943 9.162 109.767 9.402C109.599 9.642 109.359 9.83 109.047 9.966ZM105.831 9.57L107.403 9.57C108.179 9.57 108.567 9.302 108.567 8.766C108.567 8.246 108.179 7.986 107.403 7.986L105.831 7.986L105.831 9.57ZM107.547 12.21C108.371 12.21 108.783 11.942 108.783 11.406C108.783 11.126 108.687 10.918 108.495 10.782C108.303 10.638 108.003 10.566 107.595 10.566L105.831 10.566L105.831 12.21L107.547 12.21Z" fill="rgb(153,153,153)" fill-rule="nonzero" />
</svg>
