<svg width="83.411133" height="10.728516" viewBox="0 0 83.4111 10.7285" fill="none" xmlns="http://www.w3.org/2000/svg" xmlns:xlink="http://www.w3.org/1999/xlink">
	<desc>
			Created with Pixso.
	</desc>
	<defs/>
	<path id="Мои расходы" d="M7.69 2.83L7.7 8.39L9.19 8.39L9.16 0L7.89 0L4.6 5.55L1.28 0L-4.58e-5 0L-4.58e-5 8.39L1.47 8.39L1.47 2.9L4.23 7.43L4.93 7.43L7.69 2.83ZM12.66 8.15Q13.37 8.48 14.23 8.48Q15.14 8.48 15.88 8.12Q15.93 8.09 15.99 8.06Q16.43 7.82 16.77 7.47Q17.02 7.21 17.21 6.89Q17.29 6.75 17.35 6.6Q17.64 5.96 17.64 5.19Q17.64 4.42 17.35 3.78Q17.29 3.63 17.21 3.5Q17.02 3.19 16.79 2.94Q16.45 2.58 15.99 2.34Q15.93 2.3 15.86 2.27Q15.13 1.91 14.23 1.91Q13.38 1.91 12.67 2.24Q12.57 2.28 12.47 2.34Q12.02 2.58 11.68 2.93Q11.44 3.19 11.26 3.5Q11.18 3.63 11.12 3.76Q10.82 4.41 10.82 5.19Q10.82 5.97 11.11 6.61Q11.18 6.75 11.26 6.89Q11.45 7.21 11.7 7.48Q12.03 7.82 12.47 8.06Q12.56 8.11 12.66 8.15ZM35.93 2.24Q35.25 1.91 34.41 1.91Q33.75 1.91 33.2 2.14Q32.91 2.26 32.67 2.45Q32.46 2.61 32.28 2.83L32.28 1.99L30.86 1.99L30.86 10.72L32.36 10.72L32.36 7.62Q32.6 7.9 32.91 8.09Q33.54 8.48 34.41 8.48Q35.26 8.48 35.95 8.14Q36.02 8.11 36.08 8.07Q36.41 7.89 36.68 7.64Q37.01 7.33 37.24 6.91Q37.26 6.88 37.27 6.85Q37.66 6.13 37.66 5.19Q37.66 4.25 37.27 3.53Q37.26 3.5 37.24 3.48Q37.01 3.07 36.69 2.77Q36.42 2.51 36.08 2.32Q36.01 2.28 35.93 2.24ZM43.62 2.59Q42.87 1.91 41.45 1.91Q40.66 1.91 39.95 2.12Q39.25 2.32 38.74 2.7L39.33 3.8Q39.69 3.5 40.21 3.33Q40.59 3.21 40.98 3.17Q41.13 3.16 41.27 3.16Q42.07 3.16 42.47 3.52Q42.55 3.59 42.61 3.68Q42.87 4.02 42.87 4.55L42.87 4.65L41.22 4.65Q39.83 4.65 39.19 5.17Q38.91 5.4 38.75 5.7Q38.55 6.07 38.55 6.56Q38.55 6.91 38.67 7.22Q38.74 7.39 38.84 7.55Q38.88 7.6 38.92 7.65Q39.2 8.02 39.68 8.23Q40.22 8.48 40.94 8.48Q41.66 8.48 42.17 8.26Q42.58 8.08 42.84 7.77Q42.9 7.69 42.95 7.62L42.95 8.39L44.37 8.39L44.37 4.64Q44.37 3.39 43.75 2.72Q43.69 2.66 43.62 2.59ZM47.45 8.11Q48.21 8.48 49.14 8.48Q50.08 8.48 50.79 8.09Q51.17 7.88 51.45 7.59Q51.7 7.32 51.88 6.98L50.73 6.31Q50.49 6.69 50.14 6.91Q50.09 6.94 50.04 6.97Q49.92 7.04 49.8 7.08Q49.48 7.19 49.13 7.19Q48.56 7.19 48.13 6.95Q47.92 6.83 47.74 6.65Q47.61 6.53 47.52 6.39Q47.19 5.9 47.19 5.19Q47.19 4.49 47.51 4.01Q47.61 3.86 47.74 3.73Q47.95 3.53 48.2 3.4Q48.61 3.19 49.13 3.19Q49.48 3.19 49.78 3.29Q49.91 3.34 50.04 3.41Q50.1 3.44 50.15 3.48Q50.49 3.69 50.73 4.07L51.88 3.4Q51.71 3.06 51.45 2.79Q51.18 2.5 50.81 2.3Q50.09 1.91 49.14 1.91Q48.15 1.91 47.37 2.32Q47.36 2.33 47.35 2.34Q46.89 2.58 46.54 2.94Q46.3 3.19 46.12 3.5Q46.04 3.64 45.97 3.79Q45.68 4.42 45.68 5.19Q45.68 5.95 45.96 6.59Q46.03 6.74 46.12 6.89Q46.3 7.19 46.54 7.44Q46.89 7.81 47.36 8.06Q47.41 8.09 47.45 8.11ZM60.86 8.15Q61.57 8.48 62.43 8.48Q63.34 8.48 64.08 8.12Q64.14 8.09 64.19 8.06Q64.64 7.82 64.97 7.47Q65.22 7.21 65.41 6.89Q65.49 6.75 65.56 6.6Q65.85 5.96 65.85 5.19Q65.85 4.42 65.56 3.78Q65.49 3.63 65.41 3.5Q65.23 3.19 64.99 2.94Q64.65 2.58 64.19 2.34Q64.13 2.3 64.06 2.27Q63.33 1.91 62.43 1.91Q61.58 1.91 60.88 2.24Q60.78 2.28 60.68 2.34Q60.22 2.58 59.89 2.93Q59.64 3.19 59.46 3.5Q59.38 3.63 59.32 3.76Q59.02 4.41 59.02 5.19Q59.02 5.97 59.32 6.61Q59.38 6.75 59.46 6.89Q59.65 7.21 59.9 7.48Q60.24 7.82 60.68 8.06Q60.77 8.11 60.86 8.15ZM20.62 1.99L19.12 1.99L19.12 8.39L20.5 8.39L24.03 4.17L24.03 8.39L25.53 8.39L25.53 1.99L24.16 1.99L20.62 6.21L20.62 1.99ZM55.39 6.17L57.03 8.39L58.72 8.39L56.21 5.12L58.61 1.99L56.99 1.99L55.42 4.09L53.85 1.99L52.18 1.99L54.57 5.14L52.08 8.39L53.73 8.39L55.39 6.17ZM74.09 9.82L74.09 7.12L73.14 7.12L73.14 1.99L67.87 1.99L67.78 4.18Q67.71 5.57 67.49 6.34Q67.34 6.86 67 7.03Q66.85 7.12 66.65 7.12L66.35 7.12L66.35 9.82L67.75 9.82L67.75 8.39L72.69 8.39L72.69 9.82L74.09 9.82ZM80.43 4.65Q79.78 4.1 78.56 4.1L76.94 4.09L76.94 1.99L75.44 1.99L75.44 8.39L78.34 8.41Q79.65 8.42 80.36 7.84Q80.59 7.66 80.75 7.43Q81.08 6.93 81.08 6.21Q81.08 5.47 80.73 4.97Q80.6 4.8 80.43 4.65ZM83.41 1.99L81.91 1.99L81.91 8.39L83.41 8.39L83.41 1.99ZM15.14 6.98Q14.74 7.19 14.23 7.19Q13.71 7.19 13.3 6.98Q13.06 6.85 12.86 6.64Q12.74 6.52 12.65 6.38Q12.33 5.89 12.33 5.19Q12.33 4.49 12.65 4.01Q12.74 3.86 12.86 3.74Q13.06 3.53 13.31 3.4Q13.71 3.19 14.23 3.19Q14.74 3.19 15.14 3.4Q15.39 3.53 15.59 3.74Q15.72 3.87 15.82 4.02Q16.13 4.51 16.13 5.19Q16.13 5.88 15.82 6.37Q15.72 6.51 15.59 6.64Q15.39 6.85 15.14 6.98ZM35.17 6.98Q34.76 7.19 34.24 7.19Q33.81 7.19 33.45 7.04Q33.36 7 33.27 6.95Q33.12 6.86 32.99 6.75Q32.75 6.55 32.59 6.25Q32.33 5.79 32.33 5.19Q32.33 4.59 32.59 4.13Q32.76 3.83 33.01 3.62Q33.13 3.51 33.27 3.43Q33.36 3.38 33.45 3.34Q33.81 3.19 34.24 3.19Q34.76 3.19 35.16 3.4Q35.4 3.53 35.6 3.74Q35.72 3.86 35.82 4.01Q36.14 4.49 36.14 5.19Q36.14 5.89 35.81 6.38Q35.72 6.52 35.6 6.64Q35.4 6.85 35.17 6.98ZM63.35 6.98Q62.94 7.19 62.43 7.19Q61.91 7.19 61.51 6.98Q61.27 6.85 61.07 6.64Q60.95 6.52 60.86 6.38Q60.53 5.89 60.53 5.19Q60.53 4.49 60.85 4.01Q60.95 3.86 61.07 3.74Q61.27 3.53 61.51 3.4Q61.91 3.19 62.43 3.19Q62.94 3.19 63.34 3.4Q63.59 3.53 63.8 3.74Q63.93 3.87 64.02 4.02Q64.34 4.51 64.34 5.19Q64.34 5.88 64.02 6.37Q63.92 6.51 63.8 6.64Q63.59 6.85 63.35 6.98ZM68.97 6.09Q69.1 5.39 69.15 4.29L69.19 3.26L71.64 3.26L71.64 7.12L68.49 7.12Q68.84 6.79 68.97 6.09ZM79.22 7.03Q78.87 7.31 78.21 7.3L76.94 7.29L76.94 5.12L78.21 5.13Q78.89 5.14 79.23 5.39Q79.3 5.45 79.36 5.51Q79.57 5.76 79.57 6.19Q79.57 6.61 79.36 6.88Q79.3 6.96 79.22 7.03ZM42.13 7.2Q41.74 7.39 41.25 7.39Q40.67 7.39 40.35 7.15Q40.19 7.03 40.11 6.87Q40.03 6.71 40.03 6.5Q40.03 6.24 40.14 6.06Q40.42 5.65 41.32 5.65L42.87 5.65L42.87 6.39Q42.78 6.64 42.61 6.83Q42.46 7 42.25 7.13Q42.19 7.16 42.13 7.2Z" fill="#999999" fill-opacity="1.000000" fill-rule="evenodd"/>
</svg>
