<svg width="11.666748" height="11.666687" viewBox="0 0 11.6667 11.6667" fill="none" xmlns="http://www.w3.org/2000/svg" xmlns:xlink="http://www.w3.org/1999/xlink">
	<desc>
			Created with Pixso.
	</desc>
	<defs/>
	<path id="Vector" d="M5.83 0C2.61 0 0 2.61 0 5.83C0 9.04 2.61 11.66 5.83 11.66C9.04 11.66 11.66 9.04 11.66 5.83C11.66 2.61 9.04 0 5.83 0ZM8.16 6.27L6.27 6.27L6.27 8.16C6.27 8.4 6.07 8.6 5.83 8.6C5.59 8.6 5.39 8.4 5.39 8.16L5.39 6.27L3.5 6.27C3.26 6.27 3.06 6.07 3.06 5.83C3.06 5.59 3.26 5.39 3.5 5.39L5.39 5.39L5.39 3.5C5.39 3.26 5.59 3.06 5.83 3.06C6.07 3.06 6.27 3.26 6.27 3.5L6.27 5.39L8.16 5.39C8.4 5.39 8.6 5.59 8.6 5.83C8.6 6.07 8.4 6.27 8.16 6.27Z" fill="#000000" fill-opacity="1.000000" fill-rule="nonzero"/>
</svg>
