<svg width="11.660889" height="11.666687" viewBox="0 0 11.6609 11.6667" fill="none" xmlns="http://www.w3.org/2000/svg" xmlns:xlink="http://www.w3.org/1999/xlink">
	<desc>
			Created with Pixso.
	</desc>
	<defs/>
	<path id="Vector" d="M8.27 0L3.38 0C1.26 0 0 1.26 0 3.38L0 8.27C0 10.4 1.26 11.66 3.38 11.66L8.27 11.66C10.39 11.66 11.66 10.4 11.66 8.27L11.66 3.38C11.66 1.26 10.4 0 8.27 0ZM9.33 6.27L3.38 6.27L5.14 8.02C5.31 8.19 5.31 8.47 5.14 8.64C5.05 8.73 4.94 8.77 4.83 8.77C4.72 8.77 4.61 8.73 4.52 8.64L2.02 6.14C1.94 6.06 1.89 5.95 1.89 5.83C1.89 5.71 1.94 5.6 2.02 5.52L4.52 3.02C4.69 2.85 4.97 2.85 5.14 3.02C5.31 3.19 5.31 3.47 5.14 3.64L3.38 5.39L9.33 5.39C9.57 5.39 9.77 5.59 9.77 5.83C9.77 6.07 9.57 6.27 9.33 6.27Z" fill="#999999" fill-opacity="1.000000" fill-rule="nonzero"/>
</svg>
